<svg xmlns="http://www.w3.org/2000/svg" viewBox="0 0 16 15"><defs><style>.a{fill:#505050;}</style></defs><path class="a" d="M41.044,40.5l.011-.009a1.339,1.339,0,0,0,.243-1.307.559.559,0,0,0-.031-.136l0-.006a12.037,12.037,0,0,0-2.874-4.173c-1.372-1.387-3.436-3.007-4.739-3.007a1.11,1.11,0,0,0-.82.313s0,.006-.007.009l-.007,0-1.71,1.854c-1.618-.212-2.6.05-2.906.791a1.742,1.742,0,0,0,.547,1.767l-1.931,2.094c-.978,1.132.721,3.6,2.473,5.373,1.444,1.46,3.219,2.784,4.468,2.784a1.283,1.283,0,0,0,.859-.3L41.041,40.5S41.043,40.5,41.044,40.5Zm-10.89-5.422-.66.716c-.212-.253-.3-.44-.282-.53C29.247,35.206,29.5,35.069,30.154,35.074Zm3.739,10.65c-.22.185-1.677-.269-3.826-2.442-2.093-2.116-2.581-3.62-2.435-3.847l1.915-2.077a15.827,15.827,0,0,0,2.947,1.84c0,.015,0,.03,0,.045a1.445,1.445,0,0,0,.419,1.023,1.421,1.421,0,0,0,2.024,0,1.437,1.437,0,0,0-1.985-2.078,14.522,14.522,0,0,1-2.654-1.639l2.428-2.633A13.091,13.091,0,0,0,35.5,37.791,12.845,12.845,0,0,0,39.328,40.6Zm-.307-6.482a.346.346,0,0,1,.024-.125h0a.046.046,0,0,1,0-.007A.339.339,0,0,1,33.684,39a.331.331,0,0,1,.473,0,.342.342,0,0,1,.1.239.335.335,0,1,1-.669,0Zm2.91-2.013c-.075-.073-.149-.146-.225-.222-1.921-1.942-2.724-3.609-2.656-4.04h.035c.635,0,2.241.94,3.964,2.682A15.591,15.591,0,0,1,39.339,37.7,9.841,9.841,0,0,0,36.5,37.229Zm4.565,5.254a.56.56,0,0,0-.786,0c-.345.36-1.47,1.6-1.47,2.491a1.863,1.863,0,1,0,3.727,0C42.531,44.084,41.406,42.843,41.061,42.483Zm-.393,3.266a.772.772,0,0,1-.767-.776,3.327,3.327,0,0,1,.766-1.274,3.4,3.4,0,0,1,.768,1.274A.772.772,0,0,1,40.668,45.75Z" transform="translate(-26.531 -31.858)"/></svg>