<svg xmlns="http://www.w3.org/2000/svg" viewBox="0 0 13 15.968"><defs><style>.a{fill:#505050;}</style></defs><path class="a" d="M22.979,5.888,19.334,2.451A1.573,1.573,0,0,0,18.206,2h-5.45A2.252,2.252,0,0,0,10.5,4.256V15.712a2.252,2.252,0,0,0,2.256,2.256h8.487A2.252,2.252,0,0,0,23.5,15.712V7.085A1.656,1.656,0,0,0,22.979,5.888ZM20.74,14.445H13.277V13.4H20.74Zm0-2.256H13.277V11.147H20.74Zm0-2.239H13.277V8.908H20.74Zm-.955-3.87a.615.615,0,0,1-.607-.607V3.718l2.5,2.36Z" transform="translate(-10.5 -2)"/></svg>