<svg xmlns="http://www.w3.org/2000/svg" viewBox="0 0 16 11.999"><defs><style>.a{fill:#505050;}</style></defs><path class="a" d="M-4572.334-6916h-13.333a1.335,1.335,0,0,1-1.333-1.333v-9.333a1.335,1.335,0,0,1,1.333-1.333h13.333a1.335,1.335,0,0,1,1.333,1.333v9.333A1.335,1.335,0,0,1-4572.334-6916Zm-4.667-1.333v.667h4v-.667Zm-8,0v.667h4v-.667Zm9.071-3.408h1.4l.364,1.008h.937l-1.639-4.586h-.657l-1.6,4.468-1.6-4.468h-.657l-1.6,4.468-1.6-4.468h-.657l-1.64,4.586h.892l.345-1.008h1.4l.364,1.008h1.743l.345-1.008h1.4l.364,1.008h1.744l.345-1.008ZM-4577-6927.2v.667h4v-.667Zm-8,0v.667h4v-.667Zm10.274,5.743h-.976l.332-1.008.137-.722h.032l.137.715.338,1.015Zm-3.851,0h-.976l.332-1.008.136-.722h.033l.137.715.338,1.015Zm-3.851,0h-.976l.332-1.008.136-.722h.033l.137.715.338,1.015Z" transform="translate(4587 6928)"/></svg>