<svg xmlns="http://www.w3.org/2000/svg" viewBox="0 0 16 12.739"><defs><style>.a{fill:#3c3c3c;}</style></defs><path class="a" d="M16.184,14.442h-.309a1.406,1.406,0,0,0-.932.416,17.229,17.229,0,0,0-1.208-2.573,2.8,2.8,0,0,0-1.93-1.122A16.137,16.137,0,0,0,9,10.979H9a16.137,16.137,0,0,0-2.8.181,2.823,2.823,0,0,0-1.93,1.122,16.834,16.834,0,0,0-1.211,2.563,1.406,1.406,0,0,0-.932-.416l-.31.013A.826.826,0,0,0,1,15.258c0,.175,0,.362,0,.593a.86.86,0,0,0,.846.842h.407q-.064.083-.121.163a3.5,3.5,0,0,0-.575,2.026v3.99a.834.834,0,0,0,.831.841H3.467A.834.834,0,0,0,4.3,22.88v-.635h9.4v.627a.834.834,0,0,0,.834.842h1.079a.834.834,0,0,0,.834-.834v-4a3.5,3.5,0,0,0-.58-2.026q-.059-.087-.121-.163h.407A.86.86,0,0,0,17,15.849c0-.23,0-.418,0-.593A.826.826,0,0,0,16.184,14.442Zm-7.26,5.964a.663.663,0,1,1,.663-.663A.663.663,0,0,1,8.923,20.406Zm.72-3.045c-.016,0-.062.028-.062.056v.377a.66.66,0,0,1-1.319,0v-.377a1.388,1.388,0,0,1,.957-1.306.922.922,0,0,0,.629-.906.947.947,0,0,0-.934-.9.919.919,0,0,0-.826.524A.66.66,0,0,1,6.9,14.259a2.23,2.23,0,0,1,2.007-1.27h.013a2.261,2.261,0,0,1,2.247,2.18,2.233,2.233,0,0,1-1.522,2.193Z" transform="translate(-1 -10.975)"/></svg>