<svg xmlns="http://www.w3.org/2000/svg" viewBox="0 0 16 11"><defs><style>.a{fill:#505050;}</style></defs><path class="a" d="M17.787,31.873a1.531,1.531,0,0,0,1.559-1.15,1.067,1.067,0,0,0-.262-1.01l.564-2.41,4.016.2-.533,2.45a1.525,1.525,0,0,0-.774.986A1.115,1.115,0,0,0,23.4,32.319a1.569,1.569,0,0,0,1.624-1.184,1.1,1.1,0,0,0-.343-1.081l.538-2.471,5.246.265h.04a.767.767,0,0,0,.757-.608l.668-3.337a1.529,1.529,0,0,0,.835-1.031,1.1,1.1,0,0,0-1.156-1.29,1.647,1.647,0,0,0-1.638,1.209,1.023,1.023,0,0,0,.4,1.055l-.495,2.465-4.332-.219.527-2.422a1.516,1.516,0,0,0,.757-.971,1.027,1.027,0,0,0-1.062-1.251A1.606,1.606,0,0,0,24.2,22.625a.99.99,0,0,0,.312.989l-.523,2.4L20,25.814l.553-2.364a1.5,1.5,0,0,0,.682-.912.965.965,0,0,0-.976-1.214,1.568,1.568,0,0,0-1.51,1.141.966.966,0,0,0,.236.927l-1.455,6.22a1.515,1.515,0,0,0-.7.927A1.049,1.049,0,0,0,17.787,31.873Z" transform="translate(-16.791 -21.324)"/></svg>