<svg xmlns="http://www.w3.org/2000/svg" viewBox="0 0 15 16"><defs><style>.a{fill:#505050;}</style></defs><path class="a" d="M9.107,7.063H8.938a.467.467,0,0,0-.466.452v.327a.485.485,0,0,0,.483.465H9.19L9.121,8.4a1.9,1.9,0,0,0-.338,1.122v2.222a.472.472,0,0,0,.479.464h.619a.471.471,0,0,0,.469-.464V11.4h5.4v.348a.472.472,0,0,0,.479.464h.619a.472.472,0,0,0,.479-.464V9.531a1.9,1.9,0,0,0-.338-1.122l-.069-.095h.235a.485.485,0,0,0,.483-.465c0-.127,0-.232,0-.327a.467.467,0,0,0-.466-.452h-.169a.819.819,0,0,0-.535.232,9.384,9.384,0,0,0-.7-1.422,1.62,1.62,0,0,0-1.117-.63,9.563,9.563,0,0,0-1.607-.1h0a9.563,9.563,0,0,0-1.607.1,1.62,1.62,0,0,0-1.107.622,9.386,9.386,0,0,0-.7,1.422A.819.819,0,0,0,9.107,7.063Zm5.645,2,.878-.216a.383.383,0,0,1,.313.065.357.357,0,0,1,.146.276v.222a.367.367,0,0,1-.373.361h-.878a.369.369,0,0,1-.365-.315.361.361,0,0,1,.271-.394Zm-4.739.126a.357.357,0,0,1,.146-.276.383.383,0,0,1,.313-.065l.878.222a.361.361,0,0,1,.271.394.369.369,0,0,1-.365.315h-.878a.366.366,0,0,1-.365-.367ZM5.55,9.006a7.161,7.161,0,0,1,3.4-6.074.2.2,0,0,1,.214,0l1.1.694a.117.117,0,0,1-.012.207,5.778,5.778,0,0,0-3.085,6.484,5.991,5.991,0,0,0,5.7,4.53v-.514a.219.219,0,0,1,.12-.2.234.234,0,0,1,.236.012l1.942,1.226a.217.217,0,0,1,0,.369L13.22,16.971a.234.234,0,0,1-.232.008.22.22,0,0,1-.119-.193v-.523A7.4,7.4,0,0,1,5.55,9.006Zm5.285-6.554a.217.217,0,0,1,.1-.185l1.944-1.226a.234.234,0,0,1,.232-.008.22.22,0,0,1,.119.193v.523a7.464,7.464,0,0,1,7.029,5.269,7.147,7.147,0,0,1-3.105,8.062.2.2,0,0,1-.214,0l-1.1-.694a.119.119,0,0,1,.012-.207,5.778,5.778,0,0,0,3.082-6.482,5.991,5.991,0,0,0-5.7-4.53v.514a.219.219,0,0,1-.12.2.234.234,0,0,1-.236-.012L10.938,2.638A.217.217,0,0,1,10.835,2.451Z" transform="translate(-5.549 -1.006)"/></svg>