<svg xmlns="http://www.w3.org/2000/svg" viewBox="0 0 24 20"><defs><style>.a{fill:#7b7b7b;}</style></defs><g transform="translate(-6837.539 -7323)"><path class="a" d="M37.672,53.206V49.371a1.677,1.677,0,0,0-1.227-1.535,8.045,8.045,0,0,1-5.5-5.468,1.981,1.981,0,0,0-2-1.368H23.951a1.977,1.977,0,0,0-2.006,1.384,8.005,8.005,0,0,1-5.428,5.5A1.69,1.69,0,0,0,15.3,49.427v3.779a1.879,1.879,0,0,0,2.036,1.665h18.3A1.879,1.879,0,0,0,37.672,53.206Z" transform="translate(6823.056 7288.129)"/><path class="a" d="M16.09,27.552a3.472,3.472,0,0,0,3.552-3.387c0-.064-.006-.127-.01-.19a22.006,22.006,0,0,1,9.815,0c0,.063-.01.125-.01.19a3.556,3.556,0,0,0,7.1,0,3.352,3.352,0,0,0-1.711-2.892,2.263,2.263,0,0,0-.4-.225,26.919,26.919,0,0,0-19.756,0,2.244,2.244,0,0,0-.244.126,3.368,3.368,0,0,0-1.888,2.991A3.47,3.47,0,0,0,16.09,27.552Z" transform="translate(6825 7303.83)"/></g></svg>