<svg xmlns="http://www.w3.org/2000/svg" viewBox="0 0 16 14.882"><defs><style>.a{fill:#505050;}</style></defs><path class="a" d="M20.769,17.077a7.779,7.779,0,0,1-1.558-1.59,1.56,1.56,0,0,0,.257-.058,2.242,2.242,0,0,0,.978-.684l.082-.1-.085-.1a2.086,2.086,0,0,0-1.551-.838,2.6,2.6,0,0,0-1.674.684q-.084-.54-.215-1.054a6.319,6.319,0,0,0-4.339-4.743,4.527,4.527,0,0,0-2.992,0,6.32,6.32,0,0,0-4.339,4.743,11.314,11.314,0,0,0-.263,1.4c0,.027-.007.055-.011.082a7.659,7.659,0,0,0,1.877,6.059,6.819,6.819,0,0,0,1.414,1.263,6.088,6.088,0,0,0,1.067.6,3.683,3.683,0,0,0,1.042.4l.03.01h.023a3.216,3.216,0,0,0,1.325,0h.011l.015-.005a3.687,3.687,0,0,0,1.1-.428,6.106,6.106,0,0,0,1.027-.582A6.822,6.822,0,0,0,15.4,20.874a7.691,7.691,0,0,0,1.928-4.781,3.912,3.912,0,0,0,.3.352.335.335,0,0,0,.334.117.239.239,0,0,0,.114-.079,2.079,2.079,0,0,0,2.532.912c.039-.012.078-.025.118-.04l.275-.1Zm-13.325-5.3H14.89c.928,0,.928,1.093,1.1,2.1H15.35a2.242,2.242,0,0,0-.5-.235c-1.175-.375-2.392.641-3.743.647-1.3.006-2.589-.919-3.892-.589a1.519,1.519,0,0,0-.418.177H6.348C6.516,12.867,6.516,11.775,7.444,11.775Zm7.15,3.89a1.437,1.437,0,0,1-2.444.105A1.524,1.524,0,0,1,14.594,15.665Zm-4.433.087a1.489,1.489,0,0,1-2.472-.034A1.524,1.524,0,0,1,10.161,15.752ZM14.7,20.116l-.077.088a6.2,6.2,0,0,1-2.743,1.79,1.825,1.825,0,0,1-.306.072,3.157,3.157,0,0,1-.348.028h-.119a3.2,3.2,0,0,1-.348-.028,1.865,1.865,0,0,1-.306-.072A6.2,6.2,0,0,1,7.709,20.2l-.076-.088A7.2,7.2,0,0,1,6.2,17.128c-.007-.031.03-.071.053-.125h.113a3.188,3.188,0,0,0,2.357,1.386,1.431,1.431,0,0,0,1.451-.582c.872-1.12,1.073-1.12,1.951-.007a1.284,1.284,0,0,0,1.505.561,6.021,6.021,0,0,0,1.98-.988A2.3,2.3,0,0,0,15.94,17h.145c.024.053.061.094.053.125A7.2,7.2,0,0,1,14.7,20.116Z" transform="translate(-5 -8.337)"/></svg>