<svg xmlns="http://www.w3.org/2000/svg" viewBox="0 0 16 11"><defs><style>.a{fill:#505050;}</style></defs><path class="a" d="M11.245,10.731A19.017,19.017,0,0,0,8,10.371a19.017,19.017,0,0,0-3.245.36A13.882,13.882,0,0,1,2.546,11a2.391,2.391,0,0,1-1.869-.685A3.357,3.357,0,0,1,0,7.976,8,8,0,0,1,12.017,1.083l-.72.925A6.836,6.836,0,0,0,1.164,7.976a2.379,2.379,0,0,0,.372,1.556c.131.143.365.308,1.01.308a12.993,12.993,0,0,0,2.011-.252c.374-.065.767-.132,1.176-.192a2.281,2.281,0,0,1,4.538,0c.407.06.8.127,1.173.191a12.946,12.946,0,0,0,2.011.252c.783,0,1.382-.137,1.382-1.863A6.793,6.793,0,0,0,12.5,2.849l.4-1.172a7.957,7.957,0,0,1,3.1,6.3C16,10.039,15.191,11,13.454,11A13.862,13.862,0,0,1,11.245,10.731ZM7.273,9.3a.743.743,0,1,0,.744-.741A.742.742,0,0,0,7.273,9.3Zm2-2.088a2.852,2.852,0,0,0-1.222-.26L12.6,1.1,10.23,8.013A3.127,3.127,0,0,0,9.27,7.21Z"/></svg>